<?xml version="1.0" encoding="utf-8"?>
<!-- Generator: Adobe Illustrator 23.0.1, SVG Export Plug-In . SVG Version: 6.00 Build 0)  -->
<svg version="1.1" id="Layer_1" xmlns="http://www.w3.org/2000/svg" xmlns:xlink="http://www.w3.org/1999/xlink" x="0px" y="0px"
	 viewBox="0 0 1158.6 306" style="enable-background:new 0 0 1158.6 306;" xml:space="preserve">
<style type="text/css">
	.st0{fill:#FFFFFF;}
</style>
<title>hbmenu</title>
<g>
	<g id="Capa_1">
		<g id="menu">
			<path class="st0" d="M0,306h459v-51H0V306z M0,178.5h459v-51H0V178.5z M0,0v51h459V0H0z"/>
		</g>
	</g>
</g>
<g>
	<path class="st0" d="M760.4,107l0.4,10.2c6.7-7.9,15.8-11.9,27.3-11.9c12.9,0,21.6,4.9,26.3,14.8c3.1-4.4,7-8,11.9-10.7
		s10.7-4.1,17.4-4.1c20.2,0,30.4,10.7,30.8,32V199h-15.7v-60.7c0-6.6-1.5-11.5-4.5-14.7c-3-3.3-8-4.9-15.1-4.9
		c-5.8,0-10.7,1.7-14.5,5.2c-3.9,3.5-6.1,8.2-6.7,14.1v61h-15.8v-60.2c0-13.4-6.5-20.1-19.6-20.1c-10.3,0-17.4,4.4-21.2,13.2V199
		h-15.7V107H760.4z"/>
	<path class="st0" d="M936.3,200.7c-12.5,0-22.6-4.1-30.4-12.3c-7.8-8.2-11.7-19.1-11.7-32.8v-2.9c0-9.1,1.7-17.3,5.2-24.4
		c3.5-7.2,8.4-12.8,14.6-16.8c6.3-4,13-6.1,20.3-6.1c12,0,21.2,3.9,27.9,11.8c6.6,7.9,9.9,19.1,9.9,33.8v6.5h-62.3
		c0.2,9.1,2.9,16.4,7.9,22s11.5,8.4,19.3,8.4c5.6,0,10.3-1.1,14.1-3.4c3.9-2.3,7.2-5.3,10.1-9l9.6,7.5
		C963.3,194.7,951.7,200.7,936.3,200.7z M934.3,118.3c-6.3,0-11.7,2.3-16,6.9c-4.3,4.6-7,11.1-8,19.4h46v-1.2
		c-0.5-8-2.6-14.2-6.5-18.6C946.1,120.4,940.9,118.3,934.3,118.3z"/>
	<path class="st0" d="M1005.2,107l0.5,11.6c7-8.8,16.2-13.3,27.5-13.3c19.4,0,29.2,11,29.4,32.9V199h-15.7v-60.8
		c-0.1-6.6-1.6-11.5-4.5-14.7c-3-3.2-7.6-4.8-13.9-4.8c-5.1,0-9.6,1.4-13.4,4.1c-3.9,2.7-6.9,6.3-9,10.7V199h-15.7V107H1005.2z"/>
	<path class="st0" d="M1143.1,189.9c-6.1,7.2-15.1,10.8-26.9,10.8c-9.8,0-17.3-2.8-22.4-8.5c-5.1-5.7-7.7-14.1-7.8-25.3V107h15.7
		v59.4c0,13.9,5.7,20.9,17,20.9c12,0,20-4.5,24-13.4V107h15.7V199h-15L1143.1,189.9z"/>
</g>
</svg>
