<svg xmlns="http://www.w3.org/2000/svg" viewBox="0 0 1110.07 1591.48"><defs><style>.cls-1,.cls-6{fill:#00161a;}.cls-2,.cls-7{font-size:77px;fill:#ebedbd;}.cls-2{font-family:HelveticaNeue-CondensedBlack, Helvetica Neue;font-weight:800;}.cls-3{letter-spacing:-0.05em;}.cls-4{letter-spacing:-0.07em;}.cls-5{fill:#ba2d35;}.cls-6{font-size:88px;font-family:HelveticaNeue-CondensedBold, Helvetica Neue;font-weight:700;}.cls-7{font-family:HelveticaNeue-Thin, Helvetica Neue;font-weight:200;}</style></defs><title>ollekebolleke</title><g id="Layer_2" data-name="Layer 2"><g id="Layer_1-2" data-name="Layer 1"><rect class="cls-1" width="1110.07" height="1591.48"/><text class="cls-2" transform="translate(943.9 210.72)">OP<tspan x="-17.17" y="72">het</tspan><tspan x="-62.68" y="144">S</tspan><tspan class="cls-3" x="-21.33" y="144">TA</tspan><tspan x="48.59" y="144">T</tspan><tspan x="-206.74" y="216">ionsplein</tspan><tspan x="7.08" y="288">de</tspan><tspan x="1.46" y="360">RE</tspan><tspan x="-32.95" y="432">gen</tspan><tspan x="-77" y="504">daalt</tspan><tspan x="-116.81" y="576">ZACHT</tspan><tspan x="-86.78" y="648">jes ik</tspan><tspan x="-77" y="720">ZOEK</tspan><tspan x="-194.11" y="792">naar een</tspan><tspan x="-84.16" y="864">BOEK</tspan><tspan x="-209.67" y="936">werk van</tspan><tspan x="-37.19" y="1008">R</tspan><tspan class="cls-4" x="7.01" y="1008">A</tspan><tspan x="44.12" y="1008">Y</tspan><tspan x="-94.32" y="1080">mond</tspan><tspan x="-39.96" y="1152">QUE</tspan><tspan x="-71.45" y="1224">neau</tspan></text><text class="cls-2" transform="translate(88.84 210.06)">STIJL<tspan x="0" y="72">oefe</tspan><tspan x="0" y="144">NING</tspan><tspan x="0" y="216">en is</tspan><tspan x="0" y="288">BI</tspan><tspan x="0" y="360">blio</tspan><tspan x="0" y="432">THEEK</tspan><tspan x="0" y="504">sgewijs</tspan><tspan x="0" y="576">KWIJT</tspan><tspan x="0" y="648">dus</tspan><tspan x="0" y="720">krijgt</tspan><tspan x="0" y="792">ZOON</tspan><tspan x="0" y="864">lief maar</tspan><tspan x="0" y="936">SCHOEN</tspan><tspan x="0" y="1008">tjes</tspan><tspan x="0" y="1080">cadeau</tspan></text><rect class="cls-5" x="294.67" y="152.91" width="630.85" height="56.66"/><rect class="cls-5" x="262.32" y="225.37" width="641.38" height="56.66"/><rect class="cls-5" x="277.03" y="297.82" width="583.3" height="56.66"/><rect class="cls-5" x="277.03" y="369.28" width="427.91" height="56.66"/><rect class="cls-5" x="174.94" y="440.73" width="756.13" height="56.66"/><rect class="cls-5" x="234.45" y="512.81" width="696.62" height="56.66"/><rect class="cls-5" x="323" y="585.15" width="571.4" height="56.66"/><rect class="cls-5" x="361.78" y="657.49" width="469.44" height="56.66"/><rect class="cls-5" x="313.6" y="728.84" width="474.96" height="56.66"/><rect class="cls-5" x="244.51" y="800.83" width="567.61" height="56.66"/><rect class="cls-5" x="294.67" y="872.69" width="536.54" height="56.66"/><rect class="cls-5" x="288.54" y="944.79" width="423.25" height="56.66"/><rect class="cls-5" x="413.32" y="1016.83" width="417.89" height="56.66"/><rect class="cls-5" x="371.82" y="1088.94" width="326.54" height="56.66"/><rect class="cls-5" x="239.5" y="1160.85" width="626.86" height="56.66"/><rect class="cls-5" x="351.55" y="1233.13" width="460.58" height="56.66"/><rect class="cls-5" x="88.84" y="1305.41" width="786.32" height="56.66"/><rect class="cls-5" x="88.84" y="1377.68" width="750.41" height="56.66"/><text class="cls-6"><tspan x="527.11" y="285.39">O</tspan><tspan x="531.2" y="357.39">L</tspan><tspan x="531.2" y="429.39">L</tspan><tspan x="530.41" y="501.39">E</tspan><tspan x="527.95" y="573.39">K</tspan><tspan x="530.41" y="645.39">E</tspan><tspan x="551.57" y="717.39"></tspan><tspan x="527.11" y="789.39">B</tspan><tspan x="527.11" y="861.39">O</tspan><tspan x="531.2" y="933.39">L</tspan><tspan x="531.2" y="1005.39">L</tspan><tspan x="530.41" y="1077.39">E</tspan><tspan x="527.95" y="1149.39">K</tspan><tspan x="530.41" y="1221.39">E</tspan></text><text class="cls-7" transform="translate(415.47 1539.75)">Molovich</text></g></g></svg>