<svg xmlns="http://www.w3.org/2000/svg" viewBox="0 0 33.27 39.12"><defs><style>.cls-1{fill:#fff;}</style></defs><title>profile</title><g id="Layer_2" data-name="Layer 2"><g id="Layer_2-2" data-name="Layer 2"><path class="cls-1" d="M16.49,21.08h.26a7.47,7.47,0,0,0,5.71-2.47c3.12-3.52,2.6-9.55,2.55-10.12-.2-4.32-2.25-6.38-3.93-7.35A9,9,0,0,0,16.72,0h-.14a9,9,0,0,0-4.35,1.11c-1.71,1-3.78,3-4,7.38-.06.57-.58,6.6,2.54,10.12A7.46,7.46,0,0,0,16.49,21.08ZM10.41,8.69s0,0,0-.06c.27-5.81,4.39-6.43,6.16-6.43h.09c2.19,0,5.91.93,6.16,6.43,0,0,0,0,0,.06s.57,5.57-2,8.47a5.34,5.34,0,0,1-4.18,1.73h-.08a5.29,5.29,0,0,1-4.16-1.73C9.85,14.27,10.4,8.74,10.41,8.69Z"/><path class="cls-1" d="M33.27,31.07v0c0-.07,0-.13,0-.2,0-1.61-.15-5.36-3.67-6.56l-.08,0a23.45,23.45,0,0,1-6.72-3.06,1.09,1.09,0,0,0-1.52.26A1.1,1.1,0,0,0,21.53,23a25.33,25.33,0,0,0,7.4,3.37c1.89.68,2.1,2.69,2.15,4.54a1.27,1.27,0,0,0,0,.2,14.56,14.56,0,0,1-.17,2.51,29.85,29.85,0,0,1-14.28,3.32A30.06,30.06,0,0,1,2.35,33.61a13.58,13.58,0,0,1-.17-2.5c0-.07,0-.13,0-.21.06-1.84.27-3.86,2.15-4.53A25.51,25.51,0,0,0,11.74,23a1.09,1.09,0,1,0-1.26-1.79,23.13,23.13,0,0,1-6.72,3.06l-.08,0C.16,25.49.06,29.24,0,30.84A1.27,1.27,0,0,1,0,31v0a12.34,12.34,0,0,0,.42,3.67,1,1,0,0,0,.42.51c.24.17,6.06,3.88,15.81,3.88s15.57-3.72,15.81-3.88a1.05,1.05,0,0,0,.42-.51A12.76,12.76,0,0,0,33.27,31.07Z"/></g></g></svg>